# xmcd
#
# Track frame offsets:
# 150
# 4518
# 19154
# 33182
# 44360
# 56925
# 72922
# 84625
# 95664
# 114486
# 126054
# 138891
# 150259
#
# Disc length: 2172 seconds
#
#
# Revision: 0
# Processed by: cddbd v1.5.2PL0 Copyright (c) Steve Scherf et al.
# Submitted via: FreeRIP 2.945 
#
DISCID=a0087a0d
DTITLE=Bill Anderson - From This Pen
DYEAR=1900
DGENRE=Country
TTITLE0=Intro
TTITLE1=Saginaw, Michigan
TTITLE2=City Lights
TTITLE3=Once A Day
TTITLE4=I Missed Me
TTITLE5=Mama Sand A Song
TTITLE6=That's What It's Like To Be Lonesome
TTITLE7=River Boat
TTITLE8=Tips Of My Fingers
TTITLE9=I've Enjoyed As Much
TTITLE10=Po' Folks
TTITLE11=I Don't Love You Anymore
TTITLE12=Still
EXTD=
EXTT0=
EXTT1=
EXTT2=
EXTT3=
EXTT4=
EXTT5=
EXTT6=
EXTT7=
EXTT8=
EXTT9=
EXTT10=
EXTT11=
EXTT12=
PLAYORDER=
